Coordinates
version=1
nRows=18
nColumns=22
inDegrees=yes

Units are S.I. units (second, meters, Newtons, ...)
If the header above contains a line with 'inDegrees', this indicates whether rotational values are in degrees (yes) or radians (no).

endheader
time	pelvis_tilt	pelvis_list	pelvis_rotation	pelvis_tx	pelvis_ty	pelvis_tz	hip_flexion_r	hip_adduction_r	hip_rotation_r	knee_angle_r	ankle_angle_r	subtalar_angle_r	hip_flexion_l	hip_adduction_l	hip_rotation_l	knee_angle_l	ankle_angle_l	subtalar_angle_l	lumbar_extension	lumbar_bending	lumbar_rotation
      0.01000000	     -0.31043203	     -1.48846834	    -11.41140404	     -1.19472269	      0.93154898	      0.80706706	     -2.46939873	     -3.69704959	      6.35882992	     -2.86187083	      7.55151183	      6.86621194	     -3.46380768	     -5.93211063	    -13.20970957	     -7.02865466	      8.45587701	      3.37640277	     -3.81820524	     -2.22902642	      1.28610404
      0.02000000	     -0.31207631	     -1.48698129	    -11.40169917	     -1.19472851	      0.93154024	      0.80710853	     -2.47019361	     -3.69501663	      6.35901432	     -2.86054821	      7.54702673	      6.86400338	     -3.46310117	     -5.93458412	    -13.21104267	     -7.02291484	      8.45643846	      3.37627496	     -3.81965775	     -2.23189883	      1.29034647
      0.03000000	     -0.31610535	     -1.49114561	    -11.39265649	     -1.19469152	      0.93153421	      0.80715958	     -2.48585198	     -3.68698135	      6.34446163	     -2.82893266	      7.47835788	      6.82191179	     -3.47722943	     -5.94039075	    -13.19190102	     -6.99184088	      8.45537763	      3.37715427	     -3.81102297	     -2.22714934	      1.31403220
      0.04000000	     -0.31615843	     -1.49017013	    -11.37952392	     -1.19470214	      0.93152632	      0.80721680	     -2.48784890	     -3.68312417	      6.34824345	     -2.83034857	      7.47486641	      6.81777831	     -3.47689167	     -5.94506406	    -13.19277851	     -6.98678579	      8.45478207	      3.37733081	     -3.81527114	     -2.23225988	      1.31540779
      0.05000000	     -0.31571741	     -1.48982790	    -11.36584826	     -1.19471254	      0.93151800	      0.80727594	     -2.49111018	     -3.67853173	      6.35093551	     -2.83039086	      7.47046294	      6.81218227	     -3.47736716	     -5.95050806	    -13.19117754	     -6.98145133	      8.45381167	      3.37778271	     -3.81989341	     -2.23686561	      1.31989386
      0.06000000	     -0.27694633	     -1.52044932	    -11.34195610	     -1.19469923	      0.93157744	      0.80733401	     -2.55793006	     -3.64849835	      6.34875904	     -2.80191658	      7.42609383	      6.70223917	     -3.54278965	     -5.97797513	    -13.13270662	     -6.94110465	      8.43874933	      3.39570017	     -3.87402003	     -2.21407641	      1.31819002
      0.07000000	     -0.27593081	     -1.51859147	    -11.32807871	     -1.19472534	      0.93157059	      0.80739455	     -2.55892584	     -3.64547804	      6.35037432	     -2.80377632	      7.42948700	      6.70187618	     -3.54014978	     -5.98253557	    -13.13426687	     -6.93927926	      8.43876578	      3.39620819	     -3.88082156	     -2.22277003	      1.32643964
      0.08000000	     -0.25893409	     -1.51912606	    -11.31737911	     -1.19478157	      0.93158137	      0.80744940	     -2.56606743	     -3.64249816	      6.35081277	     -2.82349054	      7.46072291	      6.70387814	     -3.54204002	     -5.98785566	    -13.11585628	     -6.96308980	      8.43554209	      3.40004252	     -3.91075475	     -2.23223757	      1.36378176
      0.09000000	     -0.25648863	     -1.51861183	    -11.30402524	     -1.19482416	      0.93157426	      0.80751435	     -2.56543132	     -3.63731181	      6.35291118	     -2.82928431	      7.46692924	      6.70514211	     -3.54036247	     -5.99390883	    -13.11677889	     -6.95948056	      8.43645719	      3.40054971	     -3.92039234	     -2.24235891	      1.37043602
      0.10000000	     -0.22801457	     -1.52430554	    -11.29668397	     -1.19492127	      0.93159856	      0.80756259	     -2.56776635	     -3.62996716	      6.35309420	     -2.87906793	      7.51739866	      6.71771202	     -3.54961604	     -6.00240410	    -13.08800844	     -6.99145612	      8.43712598	      3.40459247	     -3.97018285	     -2.24841106	      1.41393285
      0.11000000	     -0.19145444	     -1.53115195	    -11.28812428	     -1.19498024	      0.93162586	      0.80761326	     -2.58343116	     -3.62286194	      6.32706541	     -2.92616104	      7.60467086	      6.75164425	     -3.58497170	     -6.00731874	    -13.09249639	     -6.99026172	      8.45369555	      3.41343828	     -4.02307103	     -2.25440992	      1.43644018
      0.12000000	     -0.17459903	     -1.53235883	    -11.27402021	     -1.19506916	      0.93164127	      0.80764679	     -2.58577601	     -3.61947593	      6.32851427	     -2.95041661	      7.61257956	      6.75985685	     -3.58411569	     -6.01196138	    -13.07107175	     -7.01149499	      8.44993935	      3.41548915	     -4.05480130	     -2.26404595	      1.46919750
      0.13000000	     -0.15381288	     -1.53602792	    -11.25981036	     -1.19516230	      0.93166100	      0.80767666	     -2.58790532	     -3.61363121	      6.32331079	     -2.98492903	      7.62772031	      6.76894633	     -3.58843585	     -6.01822544	    -13.05227454	     -7.03112611	      8.45101259	      3.41778201	     -4.09237410	     -2.27117972	      1.50183253
      0.14000000	     -0.13112205	     -1.54063157	    -11.24563207	     -1.19526189	      0.93168394	      0.80769714	     -2.59101788	     -3.60738956	      6.31178294	     -3.02000520	      7.64352365	      6.77586638	     -3.59531371	     -6.02411320	    -13.03551690	     -7.04865205	      8.45484067	      3.42021497	     -4.13403398	     -2.27719551	      1.53492490
      0.15000000	     -0.10904716	     -1.54440047	    -11.22905957	     -1.19535132	      0.93170676	      0.80771213	     -2.59563457	     -3.60226689	      6.30036648	     -3.05271192	      7.65282073	      6.77760141	     -3.60207190	     -6.02939755	    -13.01980131	     -7.06452181	      8.45830024	      3.42196137	     -4.17275222	     -2.28367423	      1.56682994
      0.16000000	     -0.08765513	     -1.54772067	    -11.21139753	     -1.19544074	      0.93173099	      0.80771395	     -2.60023010	     -3.59813988	      6.28954998	     -3.08322221	      7.65612011	      6.77425006	     -3.60814295	     -6.03325269	    -13.00417214	     -7.07893967	      8.46093103	      3.42276551	     -4.21089338	     -2.29014507	      1.59783698
      0.17000000	     -0.06418462	     -1.55078481	    -11.19531401	     -1.19553841	      0.93175986	      0.80770089	     -2.60529282	     -3.59543326	      6.27598962	     -3.11358525	      7.65524428	      6.76453532	     -3.61615134	     -6.03496411	    -12.98622435	     -7.09314663	      8.46317946	      3.42248299	     -4.25526299	     -2.29548382	      1.62927739
      0.18000000	     -0.04318952	     -1.55246667	    -11.17474164	     -1.19561534	      0.93178721	      0.80768507	     -2.61167571	     -3.59404430	      6.26679252	     -3.14054674	      7.65063605	      6.75143488	     -3.62336790	     -6.03631621	    -12.96968160	     -7.10396196	      8.46352525	      3.42108443	     -4.29111485	     -2.30410275	      1.65751507
